<?xml version="1.0" encoding="utf-8"?>
<!-- Generator: Adobe Illustrator 16.0.3, SVG Export Plug-In . SVG Version: 6.00 Build 0)  -->
<!DOCTYPE svg PUBLIC "-//W3C//DTD SVG 1.1//EN" "http://www.w3.org/Graphics/SVG/1.1/DTD/svg11.dtd">
<svg version="1.1" id="TEXT" xmlns="http://www.w3.org/2000/svg" xmlns:xlink="http://www.w3.org/1999/xlink" x="0px" y="0px"
	 width="566.929px" height="157.78px" viewBox="0 -0.001 566.929 157.78" enable-background="new 0 -0.001 566.929 157.78"
	 xml:space="preserve">
<linearGradient id="SVGID_1_" gradientUnits="userSpaceOnUse" x1="558.1284" y1="955.5977" x2="11.77" y2="955.5977" gradientTransform="matrix(1 0 0 1 -0.1797 -875.4102)">
	<stop  offset="0" style="stop-color:#013A67"/>
	<stop  offset="1" style="stop-color:#6CD1FF"/>
</linearGradient>
<polygon fill="url(#SVGID_1_)" points="491.191,27.662 536.777,27.946 557.949,5.927 479.951,5.642 406.662,79.217 396.4,79.784 
	396.686,9.001 355.481,51.055 345.625,52.224 345.625,9.374 261.264,92.842 250.775,93.958 251.667,8.077 177.937,82.94 
	168.255,82.987 167.12,11.089 127.342,51.15 116.278,51.717 116.697,8.939 11.591,114.895 46.209,114.328 91.598,70.276 
	100.303,70.276 99.883,114.54 136.035,77.543 144.679,77.543 144.679,115.23 104.892,154.73 143.019,154.165 218.036,78.299 
	228.14,78.299 228.14,115.57 274.897,115.854 320.115,70.353 328.843,69.786 328.708,112.799 364.839,76.667 373.375,76.667 
	373.941,113.102 373.203,114.998 482.378,114.998 503.279,93.815 435.398,92.661 434.781,82.809 445.357,71.67 470.968,71.667 
	493.216,49.133 479.769,48.565 479.769,39.082 "/>
<linearGradient id="SVGID_2_" gradientUnits="userSpaceOnUse" x1="64.7095" y1="938.7891" x2="60.765" y2="934.8448" gradientTransform="matrix(1 0 0 1 -0.1797 -875.4102)">
	<stop  offset="0" style="stop-color:#08406F"/>
	<stop  offset="1" style="stop-color:#60C5F5"/>
</linearGradient>
<path fill="url(#SVGID_2_)" d="M114.692,13.213L13.577,114.328l-11.471,4.313c0,0-0.604,0.039-0.271-0.445
	c0,0,117.26-117.292,117.472-117.471c0.212-0.181,0.467-0.028,0.467-0.028L114.692,13.213z"/>
<linearGradient id="SVGID_3_" gradientUnits="userSpaceOnUse" x1="123.2954" y1="1013.9102" x2="119.6701" y2="1010.2849" gradientTransform="matrix(1 0 0 1 -0.1797 -875.4102)">
	<stop  offset="0" style="stop-color:#08406F"/>
	<stop  offset="1" style="stop-color:#60C5F5"/>
</linearGradient>
<path fill="url(#SVGID_3_)" d="M145.814,115.797l-37.518,37.521l-11.065,4.457c0,0-0.576,0.065-0.236-0.407l43.929-43.749
	L145.814,115.797z"/>
<linearGradient id="SVGID_4_" gradientUnits="userSpaceOnUse" x1="25.7236" y1="994.0508" x2="25.7236" y2="989.7383" gradientTransform="matrix(1 0 0 1 -0.1797 -875.4102)">
	<stop  offset="0" style="stop-color:#08406F"/>
	<stop  offset="1" style="stop-color:#60C5F5"/>
</linearGradient>
<polygon fill="url(#SVGID_4_)" points="48.982,118.641 2.106,118.641 13.603,114.328 46.209,114.328 "/>
<linearGradient id="SVGID_5_" gradientUnits="userSpaceOnUse" x1="121.1855" y1="1033.1816" x2="121.1855" y2="1028.7246" gradientTransform="matrix(1 0 0 1 -0.1797 -875.4102)">
	<stop  offset="0" style="stop-color:#08406F"/>
	<stop  offset="1" style="stop-color:#60C5F5"/>
</linearGradient>
<polygon fill="url(#SVGID_5_)" points="144.781,157.771 97.23,157.771 108.296,153.314 142.168,153.314 "/>
<linearGradient id="SVGID_6_" gradientUnits="userSpaceOnUse" x1="427.6938" y1="994.0234" x2="427.6938" y2="989.5566" gradientTransform="matrix(1 0 0 1 -0.1797 -875.4102)">
	<stop  offset="0" style="stop-color:#08406F"/>
	<stop  offset="1" style="stop-color:#60C5F5"/>
</linearGradient>
<polygon fill="url(#SVGID_6_)" points="484.787,118.613 370.242,118.584 374.052,114.148 481.529,114.146 "/>
<linearGradient id="SVGID_7_" gradientUnits="userSpaceOnUse" x1="251.0645" y1="994.8945" x2="251.0645" y2="990.416" gradientTransform="matrix(1 0 0 1 -0.1797 -875.4102)">
	<stop  offset="0" style="stop-color:#08406F"/>
	<stop  offset="1" style="stop-color:#60C5F5"/>
</linearGradient>
<path fill="url(#SVGID_7_)" d="M277.053,119.484l-51.527-0.029c-0.333,0.005-0.81-0.335-0.81-0.335l4.561-4.115h45.054
	L277.053,119.484z"/>
<linearGradient id="SVGID_8_" gradientUnits="userSpaceOnUse" x1="522.2808" y1="882.1875" x2="522.2808" y2="877.3242" gradientTransform="matrix(1 0 0 1 -0.1797 -875.4102)">
	<stop  offset="0" style="stop-color:#08406F"/>
	<stop  offset="1" style="stop-color:#60C5F5"/>
</linearGradient>
<path fill="url(#SVGID_8_)" d="M477.382,1.913h88.652c0.785,0,0.785,0.313,0.785,0.313l-10.572,4.55h-75.164L477.382,1.913z"/>
<linearGradient id="SVGID_9_" gradientUnits="userSpaceOnUse" x1="515.0132" y1="906.7148" x2="515.0132" y2="902.5049" gradientTransform="matrix(1 0 0 1 -0.1797 -875.4102)">
	<stop  offset="0" style="stop-color:#08406F"/>
	<stop  offset="1" style="stop-color:#60C5F5"/>
</linearGradient>
<polygon fill="url(#SVGID_9_)" points="539.042,31.304 492.697,31.304 490.625,27.094 535.927,27.094 "/>
<linearGradient id="SVGID_10_" gradientUnits="userSpaceOnUse" x1="459.3696" y1="950.2305" x2="459.3696" y2="946.5117" gradientTransform="matrix(1 0 0 1 -0.1797 -875.4102)">
	<stop  offset="0" style="stop-color:#08406F"/>
	<stop  offset="1" style="stop-color:#60C5F5"/>
</linearGradient>
<polygon fill="url(#SVGID_10_)" points="473.589,74.82 448.91,74.82 444.791,71.102 470.402,71.1 "/>
<linearGradient id="SVGID_11_" gradientUnits="userSpaceOnUse" x1="490.1606" y1="925.1113" x2="490.1606" y2="919.5566" gradientTransform="matrix(1 0 0 1 -0.1797 -875.4102)">
	<stop  offset="0" style="stop-color:#08406F"/>
	<stop  offset="1" style="stop-color:#60C5F5"/>
</linearGradient>
<path fill="url(#SVGID_11_)" d="M491.8,49.7h-13.58l-1.193-5.548h25.467c0.346-0.043,0.441,0.146,0.441,0.146L491.8,49.7z"/>
<linearGradient id="SVGID_12_" gradientUnits="userSpaceOnUse" x1="74.3892" y1="968.8252" x2="70.846" y2="965.282" gradientTransform="matrix(1 0 0 1 -0.1797 -875.4102)">
	<stop  offset="0" style="stop-color:#08406F"/>
	<stop  offset="1" style="stop-color:#60C5F5"/>
</linearGradient>
<path fill="url(#SVGID_12_)" d="M96.872,70.634l-47.89,48.009l-2.773-4.313L92.81,67.965c2-2.313,4.675-1.731,4.675-1.731
	L96.872,70.634z"/>
<linearGradient id="SVGID_13_" gradientUnits="userSpaceOnUse" x1="120.2554" y1="904.3691" x2="114.8892" y2="904.3691" gradientTransform="matrix(1 0 0 1 -0.1797 -875.4102)">
	<stop  offset="0" style="stop-color:#08406F"/>
	<stop  offset="1" style="stop-color:#60C5F5"/>
</linearGradient>
<path fill="url(#SVGID_13_)" d="M114.71,51.669V13.193l5.063-12.499c0,0,0.303,0.075,0.303,0.571c0,0.493,0,53.647,0,53.647
	l-0.315,2.311C119.761,57.224,115.265,57.248,114.71,51.669z"/>
<linearGradient id="SVGID_14_" gradientUnits="userSpaceOnUse" x1="173.0811" y1="919.9609" x2="166.4209" y2="919.9609" gradientTransform="matrix(1 0 0 1 -0.1797 -875.4102)">
	<stop  offset="0" style="stop-color:#08406F"/>
	<stop  offset="1" style="stop-color:#60C5F5"/>
</linearGradient>
<path fill="url(#SVGID_14_)" d="M172.902,88.843c0,0-6.539,1.95-6.621-5.625c-0.08-7.313-0.013-69.291-0.013-69.291l5.214-13.896
	c0,0,0.182-0.027,0.182,0.725l-0.017,81.793L172.902,88.843z"/>
<linearGradient id="SVGID_15_" gradientUnits="userSpaceOnUse" x1="255.9883" y1="925.2158" x2="249.9951" y2="925.2158" gradientTransform="matrix(1 0 0 1 -0.1797 -875.4102)">
	<stop  offset="0" style="stop-color:#08406F"/>
	<stop  offset="1" style="stop-color:#60C5F5"/>
</linearGradient>
<path fill="url(#SVGID_15_)" d="M255.809,98.91c0,0-5.889,0.577-5.96-6.088l-0.033-80.063l4.651-12.071c0,0,0.583,0.153,0.583,0.907
	l-0.016,91.14L255.809,98.91z"/>
<linearGradient id="SVGID_16_" gradientUnits="userSpaceOnUse" x1="349.2769" y1="904.625" x2="343.5757" y2="904.625" gradientTransform="matrix(1 0 0 1 -0.1797 -875.4102)">
	<stop  offset="0" style="stop-color:#08406F"/>
	<stop  offset="1" style="stop-color:#60C5F5"/>
</linearGradient>
<path fill="url(#SVGID_16_)" d="M349.097,57.425c0,0-4.868,0.452-5.701-4.563V13.139l4.393-12.147c0,0,0.563,0.134,0.563,0.886
	v49.667L349.097,57.425z"/>
<linearGradient id="SVGID_17_" gradientUnits="userSpaceOnUse" x1="400.9604" y1="918.4463" x2="395.1636" y2="918.4463" gradientTransform="matrix(1 0 0 1 -0.1797 -875.4102)">
	<stop  offset="0" style="stop-color:#08406F"/>
	<stop  offset="1" style="stop-color:#60C5F5"/>
</linearGradient>
<path fill="url(#SVGID_17_)" d="M400.781,85.333c0,0-4.938,0.643-5.797-4.373V13.254l4.85-12.544c0,0,0.268,0.221,0.268,1.708
	v77.226L400.781,85.333z"/>
<linearGradient id="SVGID_18_" gradientUnits="userSpaceOnUse" x1="101.7651" y1="968.9385" x2="96.6543" y2="968.9385" gradientTransform="matrix(1 0 0 1 -0.1797 -875.4102)">
	<stop  offset="0" style="stop-color:#08406F"/>
	<stop  offset="1" style="stop-color:#60C5F5"/>
</linearGradient>
<path fill="url(#SVGID_18_)" d="M97.759,120.82c0,0-0.833-0.069-0.809-1.149c-0.001-0.917-0.078-49.036-0.078-49.036
	s-1.218-1.577,0.613-4.4c0.547,0.131,3.495,0.727,4.101,4.256v40.37L97.759,120.82z"/>
<linearGradient id="SVGID_19_" gradientUnits="userSpaceOnUse" x1="121.2485" y1="973.8379" x2="117.6964" y2="970.2858" gradientTransform="matrix(1 0 0 1 -0.1797 -875.4102)">
	<stop  offset="0" style="stop-color:#08406F"/>
	<stop  offset="1" style="stop-color:#60C5F5"/>
</linearGradient>
<path fill="url(#SVGID_19_)" d="M140.843,78.598c0,0-41.489,41.548-41.883,41.938c-0.346,0.379-1.202,0.282-1.202,0.282l3.827-9.963
	l36.059-36.088c0,0,1.34-1.727,3.831-1.637L140.843,78.598z"/>
<linearGradient id="SVGID_20_" gradientUnits="userSpaceOnUse" x1="553.436" y1="892.5" x2="549.7673" y2="888.8311" gradientTransform="matrix(1 0 0 1 -0.1797 -875.4102)">
	<stop  offset="0" style="stop-color:#08406F"/>
	<stop  offset="1" style="stop-color:#60C5F5"/>
</linearGradient>
<path fill="url(#SVGID_20_)" d="M566.609,3.639l-27.566,27.665l-3.115-4.211L556.24,6.769l10.582-4.542
	C566.822,2.228,567.171,3.074,566.609,3.639z"/>
<linearGradient id="SVGID_21_" gradientUnits="userSpaceOnUse" x1="145.9941" y1="969.8789" x2="140.5957" y2="969.8789" gradientTransform="matrix(1 0 0 1 -0.1797 -875.4102)">
	<stop  offset="0" style="stop-color:#08406F"/>
	<stop  offset="1" style="stop-color:#60C5F5"/>
</linearGradient>
<path fill="url(#SVGID_21_)" d="M140.924,113.616l-0.079-35.025c0,0-1.301-2.633,0.631-5.456c0.593-0.007,3.7,0.421,4.339,4.146
	l-0.001,38.52L140.924,113.616z"/>
<linearGradient id="SVGID_22_" gradientUnits="userSpaceOnUse" x1="148.7769" y1="907.0098" x2="144.2891" y2="902.522" gradientTransform="matrix(1 0 0 1 -0.1797 -875.4102)">
	<stop  offset="0" style="stop-color:#08406F"/>
	<stop  offset="1" style="stop-color:#60C5F5"/>
</linearGradient>
<path fill="url(#SVGID_22_)" d="M166.269,13.926l-41.462,41.463c-1.987,1.986-5.045,1.836-5.045,1.836
	c-1.795-3.531,0.315-6.065,0.315-6.065S170.58,0.67,170.944,0.29c0.331-0.417,0.541-0.264,0.541-0.264L166.269,13.926z"/>
<linearGradient id="SVGID_23_" gradientUnits="userSpaceOnUse" x1="215.8457" y1="922.3213" x2="211.688" y2="918.1636" gradientTransform="matrix(1 0 0 1 -0.1797 -875.4102)">
	<stop  offset="0" style="stop-color:#08406F"/>
	<stop  offset="1" style="stop-color:#60C5F5"/>
</linearGradient>
<path fill="url(#SVGID_23_)" d="M249.815,12.762l-74.376,74.375c-1.55,1.551-2.537,1.703-2.537,1.703
	c-3.781-1.878-1.213-6.255-1.213-6.255S252.341,1.95,252.705,1.57c0.943-1.093,1.761-0.883,1.761-0.883L249.815,12.762z"/>
<linearGradient id="SVGID_24_" gradientUnits="userSpaceOnUse" x1="304.3159" y1="927.8105" x2="299.9317" y2="923.4263" gradientTransform="matrix(1 0 0 1 -0.1797 -875.4102)">
	<stop  offset="0" style="stop-color:#08406F"/>
	<stop  offset="1" style="stop-color:#60C5F5"/>
</linearGradient>
<path fill="url(#SVGID_24_)" d="M343.396,13.139L259.233,97.3c-1.429,1.432-3.424,1.608-3.424,1.608
	c-3.115-1.556-0.776-6.175-0.776-6.175s90.61-90.5,90.974-90.881c0.941-1.098,1.781-0.862,1.781-0.862L343.396,13.139z"/>
<linearGradient id="SVGID_25_" gradientUnits="userSpaceOnUse" x1="376.9712" y1="906.8613" x2="372.7633" y2="902.653" gradientTransform="matrix(1 0 0 1 -0.1797 -875.4102)">
	<stop  offset="0" style="stop-color:#08406F"/>
	<stop  offset="1" style="stop-color:#60C5F5"/>
</linearGradient>
<path fill="url(#SVGID_25_)" d="M394.984,13.254l-42.513,42.514c-1.429,1.432-3.374,1.657-3.374,1.657
	c-2.932-1.908-0.588-5.983-0.588-5.983s49.584-49.69,49.947-50.07c1.047-1.033,1.377-0.66,1.377-0.66L394.984,13.254z"/>
<linearGradient id="SVGID_26_" gradientUnits="userSpaceOnUse" x1="488.7378" y1="935.2646" x2="485.2816" y2="931.8086" gradientTransform="matrix(1 0 0 1 -0.1797 -875.4102)">
	<stop  offset="0" style="stop-color:#08406F"/>
	<stop  offset="1" style="stop-color:#60C5F5"/>
</linearGradient>
<path fill="url(#SVGID_26_)" d="M502.958,45.453L473.589,74.82l-3.188-3.722L491.8,49.7l11.135-5.401
	C502.935,44.299,503.349,44.593,502.958,45.453z"/>
<linearGradient id="SVGID_27_" gradientUnits="userSpaceOnUse" x1="499.8081" y1="979.377" x2="495.8485" y2="975.4175" gradientTransform="matrix(1 0 0 1 -0.1797 -875.4102)">
	<stop  offset="0" style="stop-color:#08406F"/>
	<stop  offset="1" style="stop-color:#60C5F5"/>
</linearGradient>
<path fill="url(#SVGID_27_)" d="M513.634,89.96l-28.848,28.651l-3.258-4.465l20.049-20.049l12.289-5.38
	C513.867,88.72,514.263,89.152,513.634,89.96z"/>
<linearGradient id="SVGID_28_" gradientUnits="userSpaceOnUse" x1="441.8374" y1="921.6133" x2="437.5547" y2="917.3306" gradientTransform="matrix(1 0 0 1 -0.1797 -875.4102)">
	<stop  offset="0" style="stop-color:#08406F"/>
	<stop  offset="1" style="stop-color:#60C5F5"/>
</linearGradient>
<path fill="url(#SVGID_28_)" d="M481.083,6.777L404.171,83.69c-1.43,1.432-3.395,1.644-3.395,1.644
	c-2.449-3.092-0.686-5.979-0.686-5.979l77.289-77.44L481.083,6.777z"/>
<linearGradient id="SVGID_29_" gradientUnits="userSpaceOnUse" x1="486.8589" y1="916.6494" x2="481.7448" y2="911.5353" gradientTransform="matrix(1 0 0 1 -0.1797 -875.4102)">
	<stop  offset="0" style="stop-color:#08406F"/>
	<stop  offset="1" style="stop-color:#60C5F5"/>
</linearGradient>
<path fill="url(#SVGID_29_)" d="M492.697,31.304L480.021,44.09c-2.771,2.282-1.801,5.608-1.801,5.608
	c-2.25-0.21-3.125-2.065-3.412-3.695c-0.285-1.63,0.303-3.422,1.348-4.467l14.469-14.44L492.697,31.304z"/>
<linearGradient id="SVGID_30_" gradientUnits="userSpaceOnUse" x1="185.9771" y1="992.3301" x2="182.3352" y2="988.6882" gradientTransform="matrix(1 0 0 1 -0.1797 -875.4102)">
	<stop  offset="0" style="stop-color:#08406F"/>
	<stop  offset="1" style="stop-color:#60C5F5"/>
</linearGradient>
<path fill="url(#SVGID_30_)" d="M142.17,153.316l77.913-77.943c0,0,1.437-1.873,4.267-1.771l-0.456,5.223
	c0,0-78.666,78.506-79.113,78.948L142.17,153.316z"/>
<linearGradient id="SVGID_31_" gradientUnits="userSpaceOnUse" x1="303.0278" y1="969.1396" x2="299.3873" y2="965.4991" gradientTransform="matrix(1 0 0 1 -0.1797 -875.4102)">
	<stop  offset="0" style="stop-color:#08406F"/>
	<stop  offset="1" style="stop-color:#60C5F5"/>
</linearGradient>
<path fill="url(#SVGID_31_)" d="M274.33,115.004l47.643-47.659c0,0,1.437-1.871,4.267-1.771l-0.857,5.621l-48.325,48.29
	L274.33,115.004z"/>
<linearGradient id="SVGID_32_" gradientUnits="userSpaceOnUse" x1="349.8892" y1="973.085" x2="346.3799" y2="969.5756" gradientTransform="matrix(1 0 0 1 -0.1797 -875.4102)">
	<stop  offset="0" style="stop-color:#08406F"/>
	<stop  offset="1" style="stop-color:#60C5F5"/>
</linearGradient>
<path fill="url(#SVGID_32_)" d="M330.125,110.25l36.779-36.789c0.842-0.843,1.779-1.771,3.396-1.771l-0.107,5.501l-43.081,43.043
	c-0.569,0.563-1.019,0.399-1.019,0.399L330.125,110.25z"/>
<linearGradient id="SVGID_33_" gradientUnits="userSpaceOnUse" x1="370.8042" y1="993.6396" x2="366.3813" y2="989.2169" gradientTransform="matrix(1 0 0 1 -0.1797 -875.4102)">
	<stop  offset="0" style="stop-color:#08406F"/>
	<stop  offset="1" style="stop-color:#60C5F5"/>
</linearGradient>
<path fill="url(#SVGID_33_)" d="M361.984,118.057l7.25-7.281l5.557,2.326l-0.734,1.047l-3.813,4.437l-0.272,0.3h-7.72
	c-0.34,0.014-0.521-0.271-0.521-0.271S361.576,118.468,361.984,118.057z"/>
<linearGradient id="SVGID_34_" gradientUnits="userSpaceOnUse" x1="229.457" y1="971.7686" x2="223.4189" y2="971.7686" gradientTransform="matrix(1 0 0 1 -0.1797 -875.4102)">
	<stop  offset="0" style="stop-color:#08406F"/>
	<stop  offset="1" style="stop-color:#60C5F5"/>
</linearGradient>
<path fill="url(#SVGID_34_)" d="M223.983,117.338l-0.09-38.515c0,0-1.738-2.016,0.457-5.223c0.673-0.01,4.202,0.478,4.928,4.707
	l-0.001,36.694l-4.561,4.115C224.716,119.119,223.986,118.641,223.983,117.338z"/>
<linearGradient id="SVGID_35_" gradientUnits="userSpaceOnUse" x1="330.3042" y1="968.5186" x2="325.0923" y2="968.5186" gradientTransform="matrix(1 0 0 1 -0.1797 -875.4102)">
	<stop  offset="0" style="stop-color:#08406F"/>
	<stop  offset="1" style="stop-color:#60C5F5"/>
</linearGradient>
<path fill="url(#SVGID_35_)" d="M325.449,119.945l-0.08-48.75c0,0-1.472-2.681,0.871-5.621c0.596-0.009,3.243,0.472,3.885,4.702
	v39.975l-4.028,10.39C326.093,120.639,325.492,120.498,325.449,119.945z"/>
<linearGradient id="SVGID_36_" gradientUnits="userSpaceOnUse" x1="374.9702" y1="967.8066" x2="368.7251" y2="967.8066" gradientTransform="matrix(1 0 0 1 -0.1797 -875.4102)">
	<stop  offset="0" style="stop-color:#08406F"/>
	<stop  offset="1" style="stop-color:#60C5F5"/>
</linearGradient>
<path fill="url(#SVGID_36_)" d="M369.234,110.775V78.146c0,0-2.113-3.379,1.064-6.456c0.693-0.008,4.132,0.24,4.492,4.323v37.088
	L369.234,110.775z"/>
<linearGradient id="SVGID_37_" gradientUnits="userSpaceOnUse" x1="440.6372" y1="959.6748" x2="436.2191" y2="955.2568" gradientTransform="matrix(1 0 0 1 -0.1797 -875.4102)">
	<stop  offset="0" style="stop-color:#08406F"/>
	<stop  offset="1" style="stop-color:#60C5F5"/>
</linearGradient>
<path fill="url(#SVGID_37_)" d="M448.91,74.82l-13.451,13.479l-3.844,4.809c-3.896-2.458-1.953-6.874-0.912-7.925l14.088-14.079
	L448.91,74.82z"/>
<linearGradient id="SVGID_38_" gradientUnits="userSpaceOnUse" x1="472.9204" y1="969.5098" x2="472.9204" y2="963.708" gradientTransform="matrix(1 0 0 1 -0.1797 -875.4102)">
	<stop  offset="0" style="stop-color:#08406F"/>
	<stop  offset="1" style="stop-color:#60C5F5"/>
</linearGradient>
<path fill="url(#SVGID_38_)" d="M501.58,94.098h-66.391c-2.502-0.196-3.574-0.992-3.574-0.992c-0.012-3.571,3.844-4.809,3.844-4.809
	l77.746,0.001c0.543-0.001,0.662,0.422,0.662,0.422L501.58,94.098z"/>
</svg>
