<?xml version="1.0" encoding="UTF-8" standalone="no"?>
<!DOCTYPE svg PUBLIC "-//W3C//DTD SVG 1.0//EN" "http://www.w3.org/TR/2001/REC-SVG-20010904/DTD/svg10.dtd">
<!-- Created with Inkscape (http://www.inkscape.org/) -->
<svg
   xmlns:svg="http://www.w3.org/2000/svg"
   xmlns="http://www.w3.org/2000/svg"
   version="1.0"
   id="svg2">
  <defs
     id="defs4" />
  <g
     id="layer1">
    <path
       d="M 649.08982,6.2827844 C 634.43552,6.2827844 622.20754,18.510765 622.20754,33.165066 L 622.20754,80.125402 C 622.20754,94.779705 634.43552,107.00772 649.08982,107.00769 L 734.19846,107.00769 C 748.85276,107.00769 761.08067,94.779669 761.08074,80.125402 L 761.08074,33.165066 C 761.08074,18.510765 748.85276,6.2827844 734.19846,6.2827844 L 649.08982,6.2827844 z M 655.17995,34.838237 L 727.47736,34.838237 L 727.47736,78.452231 L 655.17995,78.452231 L 655.17995,34.838237 z"
       id="rect4393"
       style="opacity:1;fill:#a51e23;fill-opacity:1;fill-rule:nonzero;stroke:none;stroke-width:8;stroke-linecap:round;stroke-linejoin:round;stroke-miterlimit:4;stroke-dasharray:none;stroke-opacity:1" />
    <path
       d="M 8.1985733,8.2905898 L 8.1985733,107.11923 L 41.170984,107.11923 L 41.170984,36.846042 L 103.41952,36.846042 L 103.41952,107.11923 L 135.76093,107.11923 L 135.76093,35.172871 C 135.76093,20.518569 123.53294,8.2905898 108.87864,8.2905898 L 8.1985733,8.2905898 z"
       id="rect4348"
       style="opacity:1;fill:#a51e23;fill-opacity:1;fill-rule:nonzero;stroke:none;stroke-width:8;stroke-linecap:round;stroke-linejoin:round;stroke-miterlimit:4;stroke-dasharray:none;stroke-opacity:1" />
    <path
       d="M 158.06987,8.2905898 L 158.06987,34.280513 L 247.6403,34.280513 L 247.6403,41.307832 L 177.70175,41.307832 C 163.04745,41.307832 150.81947,53.647358 150.81947,68.30166 L 150.81947,80.236947 C 150.81947,94.891249 163.04745,107.11923 177.70175,107.11923 L 247.6403,107.11923 L 262.25266,107.11923 L 279.98828,107.11923 L 279.98828,35.172871 C 279.98824,20.518569 267.7603,8.2905898 253.10599,8.2905898 L 158.06987,8.2905898 z M 184.50598,67.632391 L 247.6403,67.632391 L 247.6403,81.687029 L 184.50598,81.687029 L 184.50598,67.632391 z"
       id="path4359"
       style="opacity:1;fill:#a51e23;fill-opacity:1;fill-rule:nonzero;stroke:none;stroke-width:8;stroke-linecap:round;stroke-linejoin:round;stroke-miterlimit:4;stroke-dasharray:none;stroke-opacity:1" />
    <path
       d="M 300.28942,8.2905898 L 300.28942,107.11923 L 333.30666,107.11923 L 333.30666,36.846042 L 367.21626,36.846042 L 367.21626,107.11923 L 400.2335,107.11923 L 400.2335,36.846042 L 434.81237,36.846042 L 434.81237,107.11923 L 467.16034,107.11923 L 467.16034,35.172871 C 467.16038,20.518569 454.93236,8.2905898 440.27806,8.2905898 L 300.28942,8.2905898 z"
       id="path4384"
       style="opacity:1;fill:#a51e23;fill-opacity:1;fill-rule:nonzero;stroke:none;stroke-width:8;stroke-linecap:round;stroke-linejoin:round;stroke-miterlimit:4;stroke-dasharray:none;stroke-opacity:1" />
    <path
       d="M 513.22832,6.2827844 C 498.57402,6.2827844 486.34604,18.510765 486.34604,33.165066 L 486.34604,80.125402 C 486.34604,94.779705 498.57402,107.00772 513.22832,107.00769 L 603.57956,107.00769 L 603.57956,78.452231 L 519.94942,78.452231 L 519.94942,34.838237 L 603.57956,34.838237 L 603.57956,6.2827844 L 513.22832,6.2827844 z"
       id="rect4389"
       style="opacity:1;fill:#a51e23;fill-opacity:1;fill-rule:nonzero;stroke:none;stroke-width:8;stroke-linecap:round;stroke-linejoin:round;stroke-miterlimit:4;stroke-dasharray:none;stroke-opacity:1" />

  </g>
</svg>
