<?xml version="1.0" encoding="utf-8"?>
<!-- Generator: Adobe Illustrator 23.0.5, SVG Export Plug-In . SVG Version: 6.00 Build 0)  -->
<svg version="1.1" id="Warstwa_1" xmlns="http://www.w3.org/2000/svg" xmlns:xlink="http://www.w3.org/1999/xlink" x="0px" y="0px" xml:space="preserve">
<g>
	<g>
		<path d="M143.22,270.79c-0.62,1.45-1.24,2.91-1.86,4.36c-1.51,3.57-3,7.14-4.54,10.7c-0.77,1.79-2.35,2.71-4.2,2.57
			c-1.71-0.13-3.3-1.31-3.57-3.04c-0.16-1.04,0-2.26,0.4-3.23c2.83-6.74,5.76-13.44,8.68-20.13c0.29-0.66,0.28-1.15-0.12-1.75
			c-2-2.97-2.24-6.12-1.06-9.49c1.31-3.76,2.46-7.58,3.72-11.54c-1.21,0.13-2.28,0.19-3.32,0.4c-0.29,0.06-0.61,0.56-0.69,0.92
			c-0.55,2.29-1.04,4.6-1.56,6.9c-0.52,2.29-2.29,3.56-4.34,3.13c-2.1-0.44-3.22-2.4-2.71-4.72c0.54-2.42,1.07-4.84,1.62-7.25
			c0.83-3.65,3.36-5.89,7.13-6.2c6.01-0.5,12.05-0.78,18.04-1.46c6.31-0.72,12.58-1.8,18.87-2.72c2.2-0.32,3.97,0.91,4.31,2.99
			c0.31,1.93-1.08,3.73-3.21,4.05c-5.41,0.83-10.83,1.65-16.25,2.42c-1.01,0.14-1.56,0.51-1.98,1.51c-2.81,6.79-5.7,13.55-8.6,20.3
			c-0.3,0.7-0.34,1.23,0.12,1.86c0.45,0.61,0.73,1.34,1.18,1.94c2.12,2.85,2.68,6.04,2.37,9.53c-0.34,3.78-0.44,7.58-0.65,11.38
			c-0.15,2.62-1.99,4.37-4.38,4.23c-2.33-0.14-3.96-2.04-3.85-4.62c0.18-4.31,0.42-8.62,0.64-12.93
			C143.35,270.86,143.28,270.82,143.22,270.79z" fill="white"/>
		<path d="M233.32,246.27c-1.83,0.24-3.68,0.48-5.63,0.73c-0.05-0.34-0.12-0.64-0.14-0.93c-0.06-0.82-0.49-1.26-1.3-1.27
			c-3-0.02-6-0.01-9-0.01c-0.88,0-1.35,0.5-1.36,1.34c-0.02,3-0.02,6,0,9c0.01,0.85,0.5,1.34,1.37,1.34
			c2.96,0.01,5.92,0.05,8.88-0.01c1.35-0.03,1.62-0.7,1.27-2.81c-2.24,0-4.51-0.03-6.78,0.02c-0.82,0.02-1.21-0.19-1.38-1.05
			c-0.32-1.6-0.76-3.17-1.18-4.83c5.16,0,10.19,0,15.39,0c-0.14,3.47,0.46,6.96-0.46,10.36c-0.72,2.64-2.75,3.98-5.33,4.1
			c-3.95,0.18-7.93,0.25-11.87-0.01c-3.49-0.23-5.45-2.2-5.67-5.71c-0.25-3.94-0.27-7.93,0.01-11.87c0.26-3.69,2.57-5.66,6.28-5.78
			c3.52-0.11,7.04-0.11,10.56,0C231.22,239.05,233.84,242.13,233.32,246.27z" fill="white"/>
		<path d="M198.36,238.95c0,1.96,0,3.82,0,5.83c-5.84,0-11.62,0-17.47,0c0,1.04,0,1.94,0,2.96c5.82,0,11.6,0,17.45,0
			c0,1.97,0,3.83,0,5.88c-5.78,0-11.58,0-17.51,0c0,3.01,0,5.83,0,8.71c-1.99,0-3.85,0-5.79,0c0-7.77,0-15.54,0-23.38
			C182.79,238.95,190.52,238.95,198.36,238.95z" fill="white"/>
		<path d="M259.77,262.33c-1.96,0-3.83,0-5.82,0c0-2.89,0-5.71,0-8.58c-3.94,0-7.75,0-11.7,0c0,2.9,0,5.72,0,8.59
			c-2,0-3.86,0-5.78,0c0-7.78,0-15.53,0-23.37c1.87,0,3.75,0,5.76,0c0,2.88,0,5.74,0,8.69c3.93,0,7.74,0,11.7,0
			c0-2.87,0-5.76,0-8.72c2.01,0,3.88,0,5.84,0C259.77,246.71,259.77,254.48,259.77,262.33z" fill="white"/>
		<path d="M277.47,262.36c-2.02,0-3.85,0-5.85,0c0-5.84,0-11.64,0-17.56c-2.99,0-5.82,0-8.73,0c0-2,0-3.89,0-5.85
			c7.73,0,15.47,0,23.29,0c0,1.89,0,3.78,0,5.82c-2.89,0-5.75,0-8.71,0C277.47,250.7,277.47,256.48,277.47,262.36z" fill="white"/>
		<path d="M158.95,221.24c0,4.37-3.54,7.93-7.91,7.95c-4.39,0.02-8.02-3.62-7.98-8.02c0.04-4.36,3.64-7.93,7.98-7.89
			C155.42,213.32,158.95,216.87,158.95,221.24z" fill="white"/>
		<path d="M201.45,238.92c1.9,0,3.73,0,5.66,0c0,7.8,0,15.56,0,23.41c-1.85,0-3.71,0-5.66,0
			C201.45,254.58,201.45,246.81,201.45,238.92z" fill="white"/>
		<path d="M174.81,216.4c-0.68,2.6-0.68,2.6-2.91,2.32c0.87,1.25,2.31,2.52-0.3,3.6c0.76,0.23,1.27,0.26,1.6,0.52
			c0.32,0.25,0.72,0.83,0.62,1.1c-0.13,0.38-0.73,0.89-1.06,0.85c-1.3-0.17-2.6-0.46-3.85-0.84c-0.81-0.24-0.95-1.1-0.31-1.72
			c0.57-0.55,1.22-1.02,1.94-1.61c-0.63-0.98-1.3-1.91-1.85-2.91c-0.21-0.39-0.34-1.07-0.14-1.36c0.22-0.31,0.88-0.47,1.33-0.43
			c0.9,0.07,1.8,0.33,2.87,0.54c0.14-1.22,0.26-2.34,0.4-3.47c0.09-0.71,0.13-1.65,1.03-1.64c0.5,0,1.09,0.62,1.46,1.1
			c0.57,0.75,0.97,1.63,1.51,2.57c0.8-0.56,1.47-1.12,2.22-1.54c0.48-0.27,1.07-0.33,1.61-0.48c0.16,0.58,0.44,1.15,0.44,1.73
			c0.01,0.95-0.17,1.89-0.28,2.93c0.67,0.11,1.27,0.13,1.82,0.32c0.37,0.13,0.83,0.43,0.93,0.75c0.1,0.32-0.1,0.88-0.36,1.13
			c-1.19,1.13-2.44,2.18-3.68,3.25c-0.56,0.48-1.15,0.61-1.67-0.04c-0.51-0.64-0.25-1.18,0.3-1.66c0.54-0.46,1.06-0.94,1.69-1.5
			c-2.24-0.56-1.08-2.18-1.26-3.47c-0.77,0.44-1.5,1.17-2.24,1.18C176.03,217.65,175.39,216.83,174.81,216.4z" fill="white"/>
	</g>
</g>
</svg>
