<?xml version="1.0" encoding="utf-8"?>
<!-- Made by Szalik  -->
<svg version="1.1" id="adult" xmlns="http://www.w3.org/2000/svg" xmlns:xlink="http://www.w3.org/1999/xlink" x="0px" y="0px" xml:space="preserve">
<g>
	<g>
		<path d="M150.72,290.48c-2.2-0.7-4.45-1.25-6.58-2.12c-13.55-5.55-22-15.55-25-29.82c-4.26-20.27,8.03-40.64,27.85-46.65
			c9.72-2.95,19.25-2.28,28.54,1.78c0.36,0.16,0.7,0.35,0.94,0.47c-1.25,1.71-2.44,3.39-3.71,5.02c-0.14,0.18-0.71,0.17-1.01,0.05
			c-5.23-2.03-10.61-2.97-16.21-2.3c-12.62,1.5-21.93,7.94-27.36,19.38c-8.88,18.74,0.99,40.62,20.83,46.81
			c17.96,5.61,37.77-5.25,42.49-23.35c0.61-2.34,1-4.77,1.2-7.19c0.2-2.41,0.04-4.86,0.04-7.44c1.7-0.74,3.69-1.61,5.82-2.53
			c0.14,0.72,0.36,1.51,0.45,2.31c1.75,15.8-3.58,28.65-16.18,38.37c-4.55,3.51-9.74,5.76-15.38,6.93
			c-0.23,0.05-0.44,0.17-0.66,0.26C161.44,290.48,156.08,290.48,150.72,290.48z" fill="white"/>
		<path d="M177.43,249.44c2.19,1.2,3.77,2.72,4.37,5.03c1.2,4.68-1.26,9.12-5.92,10.49c-4.04,1.19-8.16,1.19-12.16-0.09
			c-4.78-1.54-7.11-7.36-4.92-11.89c0.8-1.67,2.24-2.65,3.9-3.48c-0.11-0.17-0.17-0.34-0.28-0.4c-2.63-1.54-3.73-3.85-3.4-6.85
			c0.33-2.89,2.15-4.65,4.63-5.81c2.69-1.25,5.57-1.37,8.46-1.01c1.49,0.19,3.02,0.5,4.39,1.08c5.55,2.31,6.17,9.07,1.71,12.27
			C177.98,248.94,177.79,249.13,177.43,249.44z M173.88,256.57c-0.05-2.68-1.59-4.56-3.57-4.7c-2.32-0.16-4.02,1.57-4.16,4.24
			c-0.12,2.25,1.3,4.22,3.33,4.64c1.63,0.34,3.55-0.95,4.18-2.86C173.83,257.37,173.85,256.8,173.88,256.57z M166.63,243.66
			c0.01,2.04,1.43,3.43,3.49,3.41c1.9-0.01,3.32-1.44,3.32-3.35c0-2-1.48-3.46-3.48-3.45C167.94,240.28,166.62,241.62,166.63,243.66
			z" fill="white"/>
		<path d="M232.37,262.38c0-7.86,0-15.6,0-23.43c0.35-0.02,0.7-0.07,1.04-0.07c5.03,0,10.07-0.01,15.1,0.01
			c0.71,0,1.44,0.08,2.14,0.21c2.87,0.54,4.76,2.33,4.92,5.24c0.21,4.02,0.28,8.07,0.05,12.08c-0.21,3.78-2.46,5.85-6.23,5.93
			C243.76,262.47,238.13,262.38,232.37,262.38z M238.25,256.45c3.56,0,7.07,0.04,10.56-0.05c0.36-0.01,0.99-0.77,1-1.19
			c0.09-3.03,0.05-6.07,0.04-9.1c0-0.89-0.53-1.29-1.38-1.3c-1.04-0.01-2.08-0.01-3.11-0.01c-2.35,0-4.7,0-7.12,0
			C238.25,248.73,238.25,252.55,238.25,256.45z" fill="white"/>
		<path d="M258.5,238.94c1.98,0,3.84,0,5.83,0c0,0.49,0,0.92,0,1.35c0,4.64,0,9.27,0,13.91c0,2.08,0.25,2.32,2.36,2.32
			c2.48,0.01,4.96,0.02,7.43-0.01c1.6-0.01,1.9-0.32,1.9-1.9c0.01-4.76,0-9.51,0-14.27c0-0.43,0-0.86,0-1.38c1.99,0,3.88,0,5.75,0
			c0.05,0.1,0.12,0.17,0.12,0.24c-0.02,5.75,0.1,11.51-0.14,17.25c-0.16,3.76-2.48,5.79-6.26,5.9c-3.55,0.11-7.12,0.12-10.67,0
			c-3.86-0.13-6.22-2.43-6.31-6.29C258.4,250.4,258.5,244.73,258.5,238.94z" fill="white"/>
		<path d="M152.48,235.3c0,10.09,0,19.96,0,29.96c-2.57,0-5.08,0.01-7.59,0c-0.86,0-0.63-0.67-0.63-1.14
			c-0.01-5.64-0.01-11.28-0.01-16.92c0-0.42,0-0.84,0-1.56c-2.72,1.94-5.39,3.39-8.63,4.2c0-2.15-0.03-4.17,0.04-6.18
			c0.01-0.25,0.51-0.54,0.83-0.7c1.25-0.61,2.56-1.11,3.8-1.76c2.19-1.14,3.82-2.88,5.01-5.02c0.36-0.64,0.74-0.92,1.49-0.9
			C148.67,235.33,150.54,235.3,152.48,235.3z" fill="white"/>
		<path d="M204.42,262.4c4.44-8.36,8.77-16.5,13.22-24.89c4.43,8.34,8.78,16.52,13.22,24.88c-2.23,0-4.26,0.05-6.28-0.05
			c-0.34-0.02-0.79-0.63-0.94-1.05c-0.52-1.45-1.44-1.91-2.99-1.81c-2.31,0.16-4.64,0.08-6.96,0.02c-0.78-0.02-1.34,0.14-1.56,0.93
			c-0.49,1.71-1.64,2.18-3.33,1.99C207.43,262.28,206.02,262.4,204.42,262.4z M219.48,253.56c-0.63-1.19-1.19-2.25-1.85-3.48
			c-0.66,1.26-1.21,2.3-1.83,3.48C217.09,253.56,218.18,253.56,219.48,253.56z" fill="white"/>
		<path d="M284.97,238.92c1.91,0,3.74,0,5.74,0c0,5.84,0,11.64,0,17.6c5.94,0,11.72,0,17.57,0c0,2,0,3.86,0,5.8
			c-7.76,0-15.49,0-23.31,0C284.97,254.57,284.97,246.8,284.97,238.92z" fill="white"/>
		<path d="M327.49,238.96c0,1.92,0,3.78,0,5.79c-2.9,0-5.76,0-8.72,0c0,5.92,0,11.7,0,17.56c-1.96,0-3.82,0-5.85,0
			c0-5.78,0-11.58,0-17.53c-3.03,0-5.88,0-8.79,0c0-2.01,0-3.88,0-5.83C311.88,238.96,319.62,238.96,327.49,238.96z" fill="white"/>
		<path d="M185.37,238.2c0-2.27-0.05-4.38,0.02-6.49c0.04-1.05-0.26-1.42-1.34-1.36c-1.51,0.09-3.04,0-4.55,0.03
			c-0.7,0.02-1.02-0.19-0.99-0.95c0.05-1.24,0.06-2.48,0-3.71c-0.04-0.84,0.34-1.01,1.07-0.99c1.44,0.04,2.88-0.09,4.31,0.04
			c1.29,0.11,1.56-0.39,1.5-1.56c-0.09-1.63,0.02-3.28-0.04-4.91c-0.04-0.92,0.3-1.18,1.18-1.14c1.36,0.06,2.72,0.04,4.07,0.01
			c0.73-0.02,0.98,0.26,0.97,0.98c-0.03,1.84,0.03,3.68-0.03,5.51c-0.03,0.85,0.28,1.12,1.11,1.1c1.56-0.05,3.12,0.01,4.67-0.03
			c0.74-0.02,1.11,0.16,1.07,0.99c-0.06,1.24-0.05,2.48,0,3.71c0.03,0.74-0.25,0.98-0.98,0.96c-1.36-0.04-2.72-0.01-4.07-0.01
			c-1.78,0-1.78,0-1.78,1.72c0,1.72-0.01,3.44,0,5.15c0,0.52,0,0.96-0.72,0.95C189.09,238.19,187.34,238.2,185.37,238.2z" fill="white"/>
	</g>
</g>
</svg>
